<?xml version="1.0" encoding="iso-8859-1"?>
<!-- Generator: Adobe Illustrator 19.0.0, SVG Export Plug-In . SVG Version: 6.00 Build 0)  -->
<svg xmlns="http://www.w3.org/2000/svg" xmlns:xlink="http://www.w3.org/1999/xlink" version="1.1" id="Layer_1" x="0px" y="0px" viewBox="0 0 512 512" style="enable-background:new 0 0 512 512;" xml:space="preserve" width="512px" height="512px">
<g>
	<g>
		<path d="M428.522,272.696c-4.452,0-8.821,0.359-13.086,1.034l-63.33-168.881c-7.289-19.44-26.136-32.501-46.898-32.501h-43.642    c-9.22,0-16.696,7.475-16.696,16.696c0,9.22,7.475,16.696,16.696,16.696h43.642c6.921,0,13.203,4.353,15.633,10.833l33.503,89.341    h-155.58l-22.604-33.391h29.754c9.22,0,16.696-7.475,16.696-16.696s-7.475-16.696-16.696-16.696c-10.804,0-99.604,0-110.609,0    c-9.22,0-16.696,7.475-16.696,16.696s7.475,16.696,16.696,16.696h40.533l33.067,48.848l-47.768,60.339    c-11.323-5.75-24.113-9.013-37.658-9.013C37.448,272.696,0,310.144,0,356.174c0,46.03,37.448,83.478,83.478,83.478    c40.313,0,74.042-28.725,81.799-66.783h60.203c6.892,19.433,25.45,33.391,47.215,33.391c27.618,0,50.087-22.469,50.087-50.087    c0-11.216-3.706-21.583-9.957-29.941l59.985-71.074l11.375,30.334c-23.49,14.788-39.142,40.934-39.142,70.682    c0,46.03,37.448,83.478,83.478,83.478S512,402.204,512,356.174C512,310.144,474.552,272.696,428.522,272.696z M83.478,406.261    c-27.618,0-50.087-22.469-50.087-50.087c0-27.618,22.469-50.087,50.087-50.087c5.674,0,11.125,0.962,16.214,2.708L70.388,345.81    c-5.723,7.229-4.502,17.73,2.727,23.453c7.23,5.724,17.732,4.501,23.453-2.727l29.294-37.003    c4.872,7.723,7.703,16.855,7.703,26.641C133.565,383.792,111.096,406.261,83.478,406.261z M225.48,339.478h-60.203    c-2.835-13.907-9.147-26.559-17.973-37.028l41.232-52.081l48.117,71.079C231.739,326.546,227.895,332.673,225.48,339.478z     M272.696,372.87c-9.206,0-16.696-7.49-16.696-16.696c0-9.206,7.49-16.696,16.696-16.696c9.206,0,16.696,7.49,16.696,16.696    C289.391,365.38,281.902,372.87,272.696,372.87z M284.866,307.59c-5.953-1.492-11.953-1.862-18.049-1.146l-45.449-67.139h121.129    L284.866,307.59z M428.522,406.261c-27.618,0-50.087-22.469-50.087-50.087c0-15.364,6.96-29.127,17.884-38.323l16.57,44.186    c2.513,6.703,8.875,10.838,15.635,10.838c11.614,0,19.729-11.631,15.629-22.563l-16.576-44.2c0.316-0.007,0.628-0.024,0.944-0.024    c27.618,0,50.087,22.469,50.087,50.087C478.609,383.792,456.14,406.261,428.522,406.261z" fill="#45d900"/>
	</g>
</g>
<g>
</g>
<g>
</g>
<g>
</g>
<g>
</g>
<g>
</g>
<g>
</g>
<g>
</g>
<g>
</g>
<g>
</g>
<g>
</g>
<g>
</g>
<g>
</g>
<g>
</g>
<g>
</g>
<g>
</g>
</svg>
