<?xml version="1.0" encoding="iso-8859-1"?>
<!-- Generator: Adobe Illustrator 19.0.0, SVG Export Plug-In . SVG Version: 6.00 Build 0)  -->
<svg xmlns="http://www.w3.org/2000/svg" xmlns:xlink="http://www.w3.org/1999/xlink" version="1.1" id="Layer_1" x="0px" y="0px" viewBox="0 0 512 512" style="enable-background:new 0 0 512 512;" xml:space="preserve" width="512px" height="512px">
<g>
	<g>
		<g>
			<path d="M456.417,226.69c4.466,0,8.084-3.618,8.084-8.084V112.348c0-1.341-0.573-33.056-50.448-51.599     c-31.208-11.604-66.95-26.738-75.39-30.337L316.76,3.033c-1.192-1.491-2.864-2.489-4.703-2.863     c-0.065-0.013-0.13-0.022-0.195-0.033c-0.267-0.047-0.538-0.083-0.811-0.103c-0.113-0.009-0.225-0.015-0.34-0.019     C310.623,0.012,310.536,0,310.448,0h-0.024H200.392c-0.091,0-0.18,0.012-0.269,0.015c-0.126,0.004-0.251,0.011-0.376,0.022     c-0.236,0.019-0.47,0.05-0.702,0.089c-0.109,0.018-0.218,0.032-0.324,0.056c-0.318,0.068-0.632,0.151-0.938,0.255     c-0.017,0.005-0.034,0.009-0.052,0.015c-0.323,0.113-0.637,0.25-0.943,0.403c-0.093,0.046-0.182,0.1-0.273,0.151     c-0.211,0.116-0.418,0.239-0.62,0.374c-0.101,0.068-0.199,0.138-0.299,0.211c-0.192,0.141-0.376,0.293-0.555,0.452     c-0.083,0.073-0.168,0.143-0.249,0.221c-0.251,0.241-0.492,0.496-0.713,0.771l-21.908,27.386     c-8.417,3.61-44.129,18.814-75.362,30.321c-48.751,17.961-49.312,50.241-49.312,51.606v288.078v44.408     c0,3.497,2.248,6.597,5.572,7.684l54.67,17.874v19.624v13.898c0,4.466,3.619,8.084,8.084,8.084h57.073     c4.466,0,8.084-3.618,8.084-8.084c0-4.466-3.618-8.084-8.084-8.084h-48.989v-5.816v-25.487v-43.638V167.955     c0-4.466-3.619-8.084-8.084-8.084s-8.084,3.618-8.084,8.084v241.65l-44.073-14.972V112.442c0.06-1.36,1.613-22.854,38.733-36.531     c19.335-7.124,40.327-15.631,55.669-22.001l-16.795,28.886c-1.953,3.357-1.241,7.628,1.693,10.172l30.338,26.296l-12.233,29.361     c-0.015,0.037-0.024,0.074-0.038,0.111c-0.104,0.259-0.193,0.52-0.268,0.783c-0.025,0.087-0.045,0.174-0.067,0.261     c-0.059,0.235-0.108,0.471-0.144,0.707c-0.012,0.08-0.026,0.158-0.036,0.238c-0.038,0.296-0.061,0.593-0.066,0.888     c0,0.015-0.002,0.03-0.002,0.046c-0.003,0.322,0.016,0.641,0.051,0.959c0.008,0.064,0.019,0.126,0.028,0.19     c0.033,0.246,0.077,0.488,0.133,0.729c0.02,0.089,0.042,0.179,0.066,0.267c0.064,0.238,0.138,0.472,0.222,0.704     c0.023,0.064,0.042,0.128,0.067,0.191c0.113,0.288,0.245,0.569,0.391,0.843c0.032,0.06,0.07,0.119,0.103,0.178     c0.126,0.222,0.262,0.438,0.409,0.647c0.026,0.037,0.044,0.075,0.071,0.112l91.718,126.468v212.884h-52.792     c-4.466,0-8.084,3.619-8.084,8.084c0,4.466,3.618,8.084,8.084,8.084h194.099c4.466,0,8.084-3.618,8.084-8.084v-18.534v-14.612     l55.827-18.252c0.235-0.077,0.451-0.185,0.675-0.282c0.166-0.071,0.341-0.127,0.499-0.209c0.216-0.111,0.412-0.249,0.614-0.377     c0.155-0.098,0.321-0.182,0.469-0.291c0.189-0.138,0.355-0.3,0.529-0.453c0.141-0.123,0.293-0.234,0.425-0.367     c0.163-0.164,0.302-0.348,0.449-0.526c0.12-0.143,0.252-0.276,0.362-0.427c0.137-0.189,0.247-0.396,0.368-0.596     c0.095-0.157,0.204-0.305,0.288-0.469c0.109-0.212,0.188-0.441,0.278-0.663c0.068-0.167,0.151-0.326,0.208-0.498     c0.086-0.262,0.138-0.536,0.197-0.807c0.031-0.144,0.081-0.282,0.105-0.429c0.068-0.423,0.103-0.855,0.103-1.292v-44.408V245.012     c0-4.466-3.618-8.084-8.084-8.084c-4.466,0-8.084,3.618-8.084,8.084v149.623L403.099,410V167.955     c0-4.466-3.618-8.084-8.084-8.084c-4.466,0-8.084,3.618-8.084,8.084v296.573v20.853v10.45H269.876V280.418     c0.009-0.685-0.07-1.373-0.239-2.048l-2.184-9.683l81.141-111.883c1.804-2.247,2.347-5.387,1.141-8.227l-0.679-1.599     l-11.546-27.713l30.339-26.296c2.935-2.544,3.647-6.816,1.693-10.173l-16.835-28.954c15.347,6.355,36.371,14.872,55.711,22.062     c38.143,14.181,39.844,35.166,39.913,36.55v106.15C448.333,223.07,451.952,226.69,456.417,226.69z M107.738,426.682v26.697     l-44.073-14.408v-27.262L107.738,426.682z M404.26,426.682l44.073-14.973v27.228l-44.073,14.137V426.682z M300.312,16.168     l-6.461,28.648h-76.887l-6.462-28.648H300.312z M158.613,85.136l25.296-43.508l12.293-15.368l0.11,0.486l5.727,25.392     l-21.923,51.634L158.613,85.136z M177.761,150.69l30.372-71.532l37.124,164.602L177.761,150.69z M220.609,60.985h69.595     l-34.798,154.291L220.609,60.985z M265.558,243.759l37.128-164.62l30.376,71.54L265.558,243.759z M330.708,103.765     l-21.922-51.627l5.828-25.874l12.291,15.364l25.296,43.508L330.708,103.765z" fill="#95c732"/>
			<path d="M233.391,323.168h1.546c4.466,0,8.084-3.618,8.084-8.084c0-4.466-3.618-8.084-8.084-8.084h-1.546     c-4.466,0-8.084,3.618-8.084,8.084C225.307,319.549,228.927,323.168,233.391,323.168z" fill="#95c732"/>
			<path d="M233.391,381.864h1.546c4.466,0,8.084-3.618,8.084-8.084c0-4.466-3.618-8.084-8.084-8.084h-1.546     c-4.466,0-8.084,3.618-8.084,8.084C225.307,378.245,228.927,381.864,233.391,381.864z" fill="#95c732"/>
			<path d="M233.391,440.56h1.546c4.466,0,8.084-3.618,8.084-8.084c0-4.466-3.618-8.084-8.084-8.084h-1.546     c-4.466,0-8.084,3.619-8.084,8.084C225.307,436.942,228.927,440.56,233.391,440.56z" fill="#95c732"/>
		</g>
	</g>
</g>
<g>
</g>
<g>
</g>
<g>
</g>
<g>
</g>
<g>
</g>
<g>
</g>
<g>
</g>
<g>
</g>
<g>
</g>
<g>
</g>
<g>
</g>
<g>
</g>
<g>
</g>
<g>
</g>
<g>
</g>
</svg>
