<?xml version="1.0" encoding="iso-8859-1"?>
<!-- Generator: Adobe Illustrator 16.0.0, SVG Export Plug-In . SVG Version: 6.00 Build 0)  -->
<!DOCTYPE svg PUBLIC "-//W3C//DTD SVG 1.1//EN" "http://www.w3.org/Graphics/SVG/1.1/DTD/svg11.dtd">
<svg xmlns="http://www.w3.org/2000/svg" xmlns:xlink="http://www.w3.org/1999/xlink" version="1.1" id="Capa_1" x="0px" y="0px" width="512px" height="512px" viewBox="0 0 321.986 321.986" style="enable-background:new 0 0 321.986 321.986;" xml:space="preserve">
<g>
	<g>
		<path d="M51.82,275.072c28.625,0,51.823-23.203,51.823-51.822c0-1.797-0.091-3.568-0.272-5.318l20.881-3.666    c0,0,0.707-0.942,5.854,4.215c2.201,2.201,5.196,2.48,7.928,2.123c4.857,1.642,15.843,4.801,28.531,4.801    c9.844,0,20.687-1.916,30.38-7.954c14.779-9.217,23.52-25.994,26.166-49.726c6.509-7.177,13.287-12.777,19.93-17.137l5.707,16.997    c-17.922,8.155-30.406,26.181-30.406,47.151c0,28.62,23.208,51.818,51.822,51.818c28.615,0,51.823-23.203,51.823-51.818    c0-28.624-23.208-51.819-51.823-51.819c-3.904,0-7.699,0.466-11.36,1.287l-6.4-19.071c19.967-10.175,36.495-10.022,36.495-10.022    l6.204,3.395l20.608,1.639c-12.412-14.4-61.36-11.83-61.36-11.83l10.429-1.755c0,0-0.353-11.242-6.794-25.06    c-6.441-13.817-13.468-21.898-13.468-21.898c-0.643,0.725-1.062,1.58-1.394,2.465c0.114-9.512,0.238-19.024,0.969-28.521    c0.011-0.132-0.036-0.223-0.042-0.344c0.233-0.976-0.077-2.027-1.269-2.61c-3.842-1.877-7.622-3.461-11.945-3.674    c-1.176-0.057-2.253,0.854-2.553,1.947c-1.367,4.94-1.729,10.116-1.14,15.19c-0.425-0.86-0.839-1.717-1.305-2.566    c-0.72-1.294-1.968-1.492-3.045-1.092c-1.212-0.208-2.589,0.259-3.127,1.729c-0.87,2.374-2.761,3.971-2.859,6.721    c-0.154,4.324,4.868,7.133,8.047,8.862c0.602,0.329,1.202,0.345,1.771,0.238c1.563,6.33,2.082,12.868,1.698,19.581    c-9.673,6.273-5.944,11.995-5.944,11.995l-1.756,2.985c0,0-9.139-12.997-38.996,6.325c-29.857,19.322-53.394,7.026-73.066,0    c-19.671-7.027-92.039-8.779-92.039-8.779c35.6,5.385,51.29,34.659,51.29,34.659l-28.102-17.328    c-12.414,1.173-9.137,14.286-9.137,14.286l51.758,31.615c10.069-3.749,21.544,7.493,21.544,7.493l10.773,18.973l-14.76,4.204    c-7.664-19.05-26.273-32.514-48.068-32.514C23.198,171.442,0,194.646,0,223.26S23.203,275.072,51.82,275.072z M270.158,178.816    c19.807,0,35.91,16.109,35.91,35.915c0,19.802-16.104,35.91-35.91,35.91c-19.806,0-35.91-16.108-35.91-35.91    c0-13.924,7.975-25.999,19.594-31.954l11.288,33.637c0.746,2.217,2.812,3.62,5.028,3.62c0.554,0,1.124-0.094,1.683-0.274    c2.775-0.938,4.272-3.94,3.346-6.722l-11.289-33.642C265.933,179.039,268.02,178.816,270.158,178.816z M233.378,73.317    c1.615-1.261,3.175-2.493,4.66-3.791c-0.207,7.842-0.248,15.69-0.414,23.537c-1.408,0.518-2.682,1.043-3.853,1.569    c0.14-7.083-0.725-14.004-2.708-20.674C231.814,74.07,232.633,73.89,233.378,73.317z M176.947,156.183    c24.699-7.407,33.077,3.744,35.708,9.704c-2.18,20.682-9.289,35.035-21.282,42.538c-15.731,9.833-36.34,5.991-46.235,3.241    C146.225,197.142,151.491,163.82,176.947,156.183z M51.82,187.34c14.483,0,26.952,8.632,32.632,21.002L45.56,219.418l1.406,8.43    l40.635-7.141c0.06,0.844,0.129,1.684,0.129,2.543c0,19.806-16.109,35.915-35.916,35.915c-19.804,0-35.913-16.109-35.913-35.915    C15.907,203.448,32.021,187.34,51.82,187.34z" fill="#95c732"/>
		<path d="M206.224,175.036h-46.727l-7.731,33.026C198.845,216.839,206.224,175.036,206.224,175.036z" fill="#95c732"/>
	</g>
</g>
<g>
</g>
<g>
</g>
<g>
</g>
<g>
</g>
<g>
</g>
<g>
</g>
<g>
</g>
<g>
</g>
<g>
</g>
<g>
</g>
<g>
</g>
<g>
</g>
<g>
</g>
<g>
</g>
<g>
</g>
</svg>
