<?xml version="1.0" encoding="iso-8859-1"?>
<!-- Generator: Adobe Illustrator 19.0.0, SVG Export Plug-In . SVG Version: 6.00 Build 0)  -->
<svg xmlns="http://www.w3.org/2000/svg" xmlns:xlink="http://www.w3.org/1999/xlink" version="1.1" id="Capa_1" x="0px" y="0px" viewBox="0 0 58 58" style="enable-background:new 0 0 58 58;" xml:space="preserve" width="512px" height="512px">
<g>
	<path d="M58,29c0-0.512-0.014-1.02-0.04-1.526c-0.001-0.019-0.003-0.038-0.004-0.057c-0.166-3.078-0.82-6.027-1.876-8.779   c-0.005-0.012-0.01-0.025-0.015-0.037c-0.168-0.436-0.346-0.868-0.535-1.294c-0.029-0.066-0.06-0.132-0.09-0.198   c-0.164-0.363-0.334-0.722-0.512-1.077c-0.062-0.124-0.126-0.247-0.19-0.37c-0.148-0.285-0.3-0.568-0.458-0.847   c-0.102-0.182-0.206-0.362-0.312-0.541c-0.122-0.207-0.248-0.412-0.375-0.615c-0.148-0.238-0.299-0.473-0.454-0.707   c-0.085-0.127-0.172-0.253-0.259-0.379c-0.203-0.295-0.409-0.587-0.622-0.874c-0.031-0.041-0.063-0.082-0.094-0.123   c-1.102-1.467-2.34-2.842-3.72-4.09L48.061,7.14l-0.03,0.007C43.77,3.431,38.419,0.94,32.526,0.222l0.049-0.063l-1.903-0.108   c-0.004,0-0.007,0-0.011,0C30.112,0.02,29.558,0,29,0C13.009,0,0,13.009,0,29c0,0.507,0.014,1.011,0.039,1.512   c0,0.002,0,0.003,0,0.005l0.112,2.178l0.082-0.078c0.733,5.859,3.217,11.177,6.914,15.417l-0.007,0.03l0.346,0.382   c1.248,1.379,2.622,2.617,4.088,3.719c0.042,0.032,0.083,0.064,0.125,0.095c0.287,0.213,0.578,0.419,0.872,0.621   c0.126,0.087,0.253,0.175,0.381,0.26c0.233,0.155,0.469,0.305,0.706,0.453c0.204,0.127,0.408,0.253,0.615,0.375   c0.179,0.106,0.36,0.21,0.541,0.312c0.279,0.157,0.562,0.31,0.847,0.458c0.123,0.064,0.246,0.128,0.37,0.19   c0.355,0.178,0.714,0.348,1.077,0.512c0.066,0.03,0.132,0.06,0.198,0.09c0.426,0.188,0.857,0.367,1.294,0.535   c0.012,0.005,0.025,0.01,0.037,0.015c2.751,1.056,5.701,1.71,8.779,1.876c0.019,0.001,0.038,0.003,0.057,0.004   C27.98,57.986,28.488,58,29,58c6.004,0,11.587-1.834,16.22-4.971c0.005-0.003,0.011-0.005,0.016-0.008l0.099-0.06   c0.234-0.16,0.456-0.336,0.686-0.502c0.148-0.108,0.297-0.214,0.443-0.325c0.288-0.217,0.57-0.44,0.85-0.668   c0.12-0.098,0.237-0.198,0.355-0.298c0.929-0.783,1.805-1.62,2.627-2.51c0.09-0.098,0.181-0.195,0.27-0.294   c0.26-0.289,0.515-0.581,0.763-0.88c0.063-0.076,0.123-0.154,0.185-0.231c0.494-0.608,0.964-1.236,1.408-1.882   c0.046-0.067,0.095-0.133,0.14-0.2c0.205-0.304,0.4-0.613,0.593-0.925c0.096-0.154,0.19-0.31,0.283-0.466   c0.179-0.301,0.356-0.603,0.524-0.911c0.093-0.17,0.179-0.344,0.269-0.516c0.148-0.284,0.304-0.562,0.443-0.851l0.053-0.135   c0.001-0.002,0.001-0.004,0.002-0.006C57.002,37.61,58,33.42,58,29z M55.675,33.183c-0.438-2.343-1.343-4.594-2.731-6.562   c-2.927-4.152-7.439-6.559-12.706-6.777l-0.055-0.002l-0.054,0.004c-4.071,0.274-7.294-0.911-9.295-3.341   c4.996-3.32,10.608-5.786,16.628-7.18c0.831,0.78,1.617,1.608,2.345,2.487c0.015,0.018,0.03,0.037,0.045,0.055   c0.246,0.299,0.485,0.604,0.719,0.914c0.051,0.067,0.1,0.135,0.15,0.203c0.196,0.266,0.388,0.535,0.575,0.808   c0.09,0.131,0.177,0.265,0.264,0.397c0.142,0.216,0.283,0.434,0.42,0.654c0.131,0.214,0.258,0.43,0.383,0.646   c0.087,0.149,0.174,0.297,0.258,0.448c0.174,0.314,0.34,0.632,0.501,0.952c0.031,0.062,0.064,0.123,0.095,0.185   C55.026,20.75,56,24.828,56,29C56,30.423,55.888,31.819,55.675,33.183z M52.923,41.495c-0.076,0.145-0.149,0.292-0.228,0.436   c-0.16,0.292-0.327,0.579-0.497,0.864c-0.08,0.135-0.162,0.268-0.245,0.401c-0.184,0.297-0.37,0.592-0.565,0.881   c-0.016,0.024-0.034,0.048-0.05,0.072c-0.438,0.644-0.905,1.267-1.395,1.869c-0.051,0.063-0.101,0.128-0.153,0.19   c-0.235,0.283-0.477,0.561-0.723,0.835c-0.074,0.082-0.149,0.163-0.224,0.245c-0.008,0.009-0.016,0.017-0.024,0.026L44.96,42.62   c-6.223-7.568-12.977-14.728-20.16-21.416c1.39-1.259,2.849-2.442,4.372-3.544c2.39,3.021,6.233,4.501,11.036,4.185   c4.609,0.206,8.55,2.31,11.102,5.929c2.606,3.698,3.363,8.511,2.035,12.898C53.211,40.949,53.066,41.222,52.923,41.495z    M46.075,49.897c-0.268,0.219-0.54,0.433-0.816,0.641c-0.12,0.091-0.242,0.179-0.364,0.267c-0.233,0.171-0.468,0.34-0.707,0.503   c-4.578,2.357-9.932,2.253-14.348-0.291c-4.248-2.448-6.811-6.75-7.037-11.81c0.395-6.065-2.009-9.375-4.325-11.145   c1.487-1.945,3.113-3.777,4.86-5.487c7.154,6.653,13.88,13.778,20.075,21.313l3.985,4.847c-0.341,0.318-0.688,0.628-1.045,0.928   C46.261,49.741,46.169,49.82,46.075,49.897z M16.441,26.823c-4.446-2.082-10.204-1.392-14.425,1.555   c0.003-0.132,0.005-0.263,0.01-0.395c0.008-0.218,0.018-0.436,0.031-0.653c0.015-0.237,0.033-0.474,0.054-0.71   c0.019-0.215,0.039-0.43,0.063-0.643c0.026-0.235,0.057-0.468,0.089-0.701c0.029-0.211,0.059-0.421,0.093-0.63   c0.038-0.233,0.081-0.464,0.125-0.695c0.039-0.206,0.078-0.411,0.122-0.615c0.049-0.231,0.104-0.459,0.159-0.688   c0.049-0.201,0.097-0.401,0.15-0.6c0.061-0.228,0.127-0.453,0.193-0.678c0.058-0.196,0.115-0.391,0.177-0.585   c0.072-0.224,0.149-0.447,0.227-0.668c0.066-0.19,0.132-0.381,0.203-0.569c0.083-0.221,0.171-0.44,0.26-0.658   c0.075-0.184,0.148-0.369,0.227-0.551c0.094-0.217,0.193-0.431,0.292-0.645c0.083-0.179,0.165-0.359,0.252-0.536   c0.104-0.212,0.214-0.422,0.324-0.631c0.091-0.173,0.18-0.347,0.274-0.518c0.115-0.209,0.236-0.414,0.356-0.619   c0.097-0.166,0.193-0.333,0.294-0.497c0.125-0.204,0.257-0.404,0.387-0.604c0.104-0.16,0.207-0.321,0.314-0.479   c0.135-0.198,0.276-0.391,0.416-0.584c0.112-0.154,0.221-0.31,0.336-0.462c0.144-0.191,0.294-0.377,0.443-0.563   c0.118-0.148,0.235-0.299,0.356-0.445c0.154-0.185,0.314-0.365,0.473-0.546c0.124-0.141,0.245-0.284,0.372-0.422   c0.076-0.083,0.155-0.162,0.232-0.243l2.692,2.179c3.369,2.727,6.649,5.569,9.855,8.497c-1.829,1.798-3.531,3.726-5.085,5.772   C16.666,26.934,16.55,26.874,16.441,26.823z M15.582,28.63c-3.559,5.076-6.249,10.803-7.856,16.965   c-3.219-4.117-5.269-9.186-5.653-14.71C5.718,27.674,11.433,26.694,15.582,28.63z M11.466,8.493   c0.139-0.119,0.275-0.241,0.416-0.357c0.191-0.157,0.389-0.307,0.584-0.459c0.143-0.111,0.283-0.226,0.428-0.334   c0.206-0.154,0.418-0.299,0.628-0.447c0.141-0.099,0.279-0.201,0.421-0.298c0.227-0.153,0.459-0.297,0.691-0.443   c0.132-0.083,0.262-0.171,0.395-0.252c0.255-0.155,0.516-0.3,0.776-0.447c0.116-0.065,0.229-0.135,0.346-0.198   c0.34-0.185,0.685-0.36,1.033-0.53c0.041-0.02,0.08-0.042,0.121-0.062c0.39-0.188,0.785-0.367,1.185-0.536   c0.127-0.054,0.258-0.101,0.386-0.153c0.274-0.111,0.548-0.224,0.827-0.326c0.166-0.061,0.337-0.114,0.505-0.172   c0.245-0.085,0.489-0.172,0.737-0.25c0.18-0.056,0.364-0.105,0.546-0.157c0.24-0.07,0.478-0.142,0.721-0.205   c0.193-0.05,0.39-0.092,0.585-0.138c0.235-0.055,0.469-0.114,0.707-0.163c0.201-0.042,0.405-0.075,0.608-0.112   c0.235-0.043,0.47-0.09,0.707-0.127c0.205-0.032,0.414-0.056,0.621-0.083c0.238-0.032,0.475-0.066,0.716-0.091   c0.208-0.022,0.419-0.035,0.629-0.053c0.242-0.02,0.484-0.042,0.728-0.055c0.211-0.012,0.424-0.015,0.636-0.021   c0.204-0.006,0.409-0.014,0.614-0.016c-2.557,4.335-2.881,9.843-0.687,13.98c-1.659,1.195-3.245,2.483-4.753,3.857   c-3.269-2.989-6.615-5.891-10.053-8.674L10.749,9.13c0.054-0.05,0.106-0.102,0.16-0.151C11.091,8.812,11.279,8.653,11.466,8.493z    M29.739,14.833C27.864,11.068,28.433,5.838,31.1,2.09c5.44,0.42,10.431,2.458,14.496,5.636   C39.877,9.218,34.536,11.647,29.739,14.833z M17.079,53.217c-0.068-0.034-0.135-0.07-0.202-0.104   c-0.315-0.158-0.627-0.322-0.935-0.492c-0.156-0.087-0.31-0.177-0.464-0.267c-0.211-0.122-0.422-0.245-0.63-0.373   c-0.226-0.139-0.448-0.283-0.669-0.429c-0.128-0.084-0.256-0.168-0.383-0.254c-0.277-0.189-0.549-0.383-0.819-0.583   c-0.064-0.047-0.129-0.094-0.193-0.142c-0.313-0.235-0.621-0.477-0.922-0.725c-0.016-0.013-0.031-0.026-0.047-0.039   c-0.88-0.728-1.709-1.515-2.49-2.347c1.5-6.482,4.239-12.493,7.954-17.769c2.556,1.983,3.81,5.247,3.526,9.436l-0.004,0.054   l0.002,0.055c0.239,5.782,3.169,10.708,8.039,13.513c2.334,1.345,4.899,2.085,7.498,2.227C34.004,55.639,31.544,56,29,56   C24.829,56,20.753,55.026,17.079,53.217z" fill="#90c732"/>
</g>
<g>
</g>
<g>
</g>
<g>
</g>
<g>
</g>
<g>
</g>
<g>
</g>
<g>
</g>
<g>
</g>
<g>
</g>
<g>
</g>
<g>
</g>
<g>
</g>
<g>
</g>
<g>
</g>
<g>
</g>
</svg>
