<?xml version="1.0" encoding="iso-8859-1"?>
<!-- Generator: Adobe Illustrator 19.0.0, SVG Export Plug-In . SVG Version: 6.00 Build 0)  -->
<svg xmlns="http://www.w3.org/2000/svg" xmlns:xlink="http://www.w3.org/1999/xlink" version="1.1" id="Capa_1" x="0px" y="0px" viewBox="0 0 57.999 57.999" style="enable-background:new 0 0 57.999 57.999;" xml:space="preserve" width="512px" height="512px">
<g>
	<g>
		<g>
			<path d="M0.102,31.359c0.502,6.187,2.949,11.829,6.734,16.313c1.864-6.271,5.147-12.505,9.374-18.215     c-0.18-0.097-0.36-0.188-0.538-0.272C10.908,26.953,4.062,27.946,0.102,31.359z" fill="#9ac732"/>
			<path d="M12.008,12.719L7.946,9.081C3.043,14.261,0.022,21.238,0,28.911c4.628-3.176,11.468-3.905,16.521-1.538     c0.316,0.148,0.619,0.309,0.914,0.477c1.619-2.062,3.354-4.05,5.191-5.933C19.18,18.741,15.645,15.663,12.008,12.719z" fill="#9ac732"/>
			<path d="M30.84,0.06c-2.401,4.29-2.626,10.59-0.346,14.892c5.151-3.921,10.708-6.992,16.298-8.83     C42.33,2.642,36.831,0.437,30.84,0.06z" fill="#9ac732"/>
			<path d="M43.417,43.89c-5.987-7.281-12.463-14.183-19.345-20.642c-1.775,1.816-3.45,3.734-5.015,5.724     c2.836,2.339,4.223,5.873,3.942,10.231c0.235,5.205,3.392,10.048,8.453,12.964c3.751,2.162,7.965,2.895,11.672,2.142     c2.026-1.135,3.902-2.505,5.592-4.075L43.417,43.89z" fill="#9ac732"/>
			<path d="M48.608,7.654c-5.832,1.717-11.66,4.852-17.029,8.948c1.574,1.964,4.198,3.687,8.548,3.396l0.054-0.004l0.055,0.002     c5.342,0.221,10.35,3.106,13.74,7.914c1.658,2.353,2.767,4.94,3.29,7.539c0.474-2.077,0.733-4.235,0.733-6.454     C57.998,20.56,54.376,12.958,48.608,7.654z" fill="#9ac732"/>
			<path d="M30.454,53.899c-5.676-3.27-9.21-8.753-9.455-14.667l-0.002-0.055L21,39.124c0.294-4.348-1.264-6.974-3.157-8.562     c-4.364,5.892-7.7,12.363-9.427,18.84c5.258,5.303,12.542,8.593,20.582,8.593c3.233,0,6.341-0.54,9.248-1.521     C35.607,56.185,32.935,55.329,30.454,53.899z" fill="#9ac732"/>
			<path d="M52.341,29.063c-3.018-4.281-7.438-6.854-12.135-7.066c-4.284,0.275-7.824-1.192-10.197-4.16     c-1.552,1.26-3.062,2.595-4.515,4c6.919,6.497,13.438,13.448,19.464,20.776l5.182,6.203c2.184-2.328,3.987-5.015,5.313-7.962     C56.031,37.019,54.932,32.74,52.341,29.063z" fill="#9ac732"/>
			<path d="M9.369,7.672l3.936,3.525c3.676,2.976,7.253,6.091,10.741,9.309c1.562-1.515,3.185-2.955,4.859-4.308     c-0.056-0.1-0.116-0.194-0.171-0.296C26.272,11.27,26.331,4.827,28.62,0.005C21.203,0.1,14.451,2.99,9.369,7.672z" fill="#9ac732"/>
		</g>
	</g>
</g>
<g>
</g>
<g>
</g>
<g>
</g>
<g>
</g>
<g>
</g>
<g>
</g>
<g>
</g>
<g>
</g>
<g>
</g>
<g>
</g>
<g>
</g>
<g>
</g>
<g>
</g>
<g>
</g>
<g>
</g>
</svg>
